<svg id="visual" viewBox="0 0 960 540" width="960" height="540" xmlns="http://www.w3.org/2000/svg" xmlns:xlink="http://www.w3.org/1999/xlink" version="1.1"><rect x="0" y="0" width="960" height="540" fill="#f1f7fd"></rect><defs><linearGradient id="grad1_0" x1="43.8%" y1="100%" x2="100%" y2="0%"><stop offset="14.444444444444446%" stop-color="#f1f7fd" stop-opacity="1"></stop><stop offset="85.55555555555554%" stop-color="#f1f7fd" stop-opacity="1"></stop></linearGradient></defs><defs><linearGradient id="grad2_0" x1="0%" y1="100%" x2="56.3%" y2="0%"><stop offset="14.444444444444446%" stop-color="#f1f7fd" stop-opacity="1"></stop><stop offset="85.55555555555554%" stop-color="#f1f7fd" stop-opacity="1"></stop></linearGradient></defs><g transform="translate(960, 540)"><path d="M-189 0C-188.4 -29.6 -187.7 -59.2 -166.3 -68.9C-144.9 -78.6 -102.6 -68.4 -87 -87C-71.4 -105.5 -82.4 -152.8 -72.3 -174.6C-62.3 -196.4 -31.1 -192.7 0 -189L0 0Z" fill="#1d2c4c"></path></g><g transform="translate(0, 0)"><path d="M189 0C168.8 17.5 148.6 35 142.3 58.9C135.9 82.8 143.4 113.1 133.6 133.6C123.8 154.2 96.7 165.1 71.6 172.8C46.4 180.4 23.2 184.7 0 189L0 0Z" fill="#1d2c4c"></path></g></svg>