<svg id="visual" viewBox="0 0 900 600" width="900" height="600" xmlns="http://www.w3.org/2000/svg" xmlns:xlink="http://www.w3.org/1999/xlink" version="1.1"><rect x="0" y="0" width="900" height="600" fill="#f1f7fd"></rect><defs><linearGradient id="grad1_0" x1="33.3%" y1="100%" x2="100%" y2="0%"><stop offset="20%" stop-color="#f1f7fd" stop-opacity="1"></stop><stop offset="80%" stop-color="#f1f7fd" stop-opacity="1"></stop></linearGradient></defs><defs><linearGradient id="grad2_0" x1="0%" y1="100%" x2="66.7%" y2="0%"><stop offset="20%" stop-color="#f1f7fd" stop-opacity="1"></stop><stop offset="80%" stop-color="#f1f7fd" stop-opacity="1"></stop></linearGradient></defs><g transform="translate(900, 600)"><path d="M-189.3 0C-192.5 -29.2 -195.7 -58.4 -174.9 -72.4C-154.1 -86.5 -109.3 -85.4 -83.4 -83.4C-57.6 -81.5 -50.6 -78.6 -39.8 -96.1C-29 -113.6 -14.5 -151.4 0 -189.3L0 0Z" fill="#1d2c4c"></path></g><g transform="translate(0, 0)"><path d="M189.3 0C170.7 21.9 152.1 43.8 134 55.5C115.8 67.1 98 68.5 90.5 90.5C83 112.5 85.8 155 72.4 174.9C59.1 194.8 29.5 192 0 189.3L0 0Z" fill="#1d2c4c"></path></g></svg>